<?xml version="1.0" encoding="UTF-8"?>
<svg xmlns="http://www.w3.org/2000/svg" width="55" height="55" viewBox="0 0 55 55" fill="none">
  <path d="M48.0141 38.747V45.9051C48.0141 46.366 47.642 46.7381 47.181 46.7381C46.72 46.7381 46.348 46.366 46.348 45.9051V38.747C46.348 37.469 45.3046 36.4177 44.0185 36.4177H28.3355V45.9051C28.3355 46.366 27.9634 46.7381 27.5024 46.7381C27.0413 46.7381 26.6693 46.366 26.6693 45.9051V36.4177H10.9862C9.70016 36.4177 8.64865 37.469 8.64865 38.747V45.9051C8.64865 46.366 8.27662 46.7381 7.81553 46.7381C7.35455 46.7381 6.98242 46.366 6.98242 45.9051V38.747C6.98242 36.547 8.77809 34.7514 10.9862 34.7514H26.6693V26.0969C26.6693 25.6279 27.0413 25.2559 27.5024 25.2559C27.9634 25.2559 28.3355 25.6279 28.3355 26.0969V34.7514H44.0185C46.2185 34.7514 48.0141 36.547 48.0141 38.747Z" fill="#84DFC1"></path>
  <path d="M42.69 5.59229V24.5943C42.69 26.3434 41.2721 27.7613 39.523 27.7613H15.4775C13.7285 27.7613 12.3105 26.3434 12.3105 24.5943V5.59229C12.3105 3.84321 13.7285 2.42529 15.4775 2.42529H39.523C41.2721 2.42529 42.69 3.84321 42.69 5.59229Z" fill="#43D996"></path>
  <path d="M14.016 44.9819V50.9912C14.016 51.8657 13.3071 52.5747 12.4325 52.5747H3.20069C2.32614 52.5747 1.61719 51.8657 1.61719 50.9912V44.9819C1.61719 44.1074 2.32614 43.3984 3.20069 43.3984H12.4325C13.3071 43.3984 14.016 44.1074 14.016 44.9819ZM33.699 44.9819V50.9912C33.699 51.8657 32.99 52.5747 32.1155 52.5747H22.8836C22.0091 52.5747 21.3001 51.8657 21.3001 50.9912V44.9819C21.3001 44.1074 22.0091 43.3984 22.8836 43.3984H32.1155C32.99 43.3984 33.699 44.1074 33.699 44.9819ZM53.3819 44.9819V50.9912C53.3819 51.8657 52.6729 52.5747 51.7984 52.5747H42.5666C41.692 52.5747 40.9831 51.8657 40.9831 50.9912V44.9819C40.9831 44.1074 41.692 43.3984 42.5666 43.3984H51.7984C52.6729 43.3984 53.3819 44.1074 53.3819 44.9819Z" fill="white"></path>
  <path opacity="0.15" d="M8.64865 41.7803V45.9054C8.64865 46.3662 8.27662 46.7383 7.81553 46.7383C7.35455 46.7383 6.98242 46.3662 6.98242 45.9054V41.7803H8.64865Z" fill="#3B3D3F"></path>
  <path d="M14.016 44.9819V50.9912C14.016 51.8657 13.3071 52.5747 12.4325 52.5747H3.20069C2.32614 52.5747 1.61719 51.8657 1.61719 50.9912V44.9819C1.61719 44.1074 2.32614 43.3984 3.20069 43.3984H12.4325C13.3071 43.3984 14.016 44.1074 14.016 44.9819Z" fill="#1B7DE4"></path>
  <path opacity="0.15" d="M28.3342 41.7803V45.9054C28.3342 46.3662 27.9621 46.7383 27.5011 46.7383C27.04 46.7383 26.668 46.3662 26.668 45.9054V41.7803H28.3342Z" fill="#3B3D3F"></path>
  <path d="M33.6996 44.9819V50.9912C33.6996 51.8657 32.9907 52.5747 32.1161 52.5747H22.8843C22.0097 52.5747 21.3008 51.8657 21.3008 50.9912V44.9819C21.3008 44.1074 22.0097 43.3984 22.8843 43.3984H32.1161C32.9907 43.3984 33.6996 44.1074 33.6996 44.9819Z" fill="#1B7DE4"></path>
  <path opacity="0.15" d="M48.0138 41.7803V45.9054C48.0138 46.3662 47.6417 46.7383 47.1807 46.7383C46.7197 46.7383 46.3477 46.3662 46.3477 45.9054V41.7803H48.0138Z" fill="#3B3D3F"></path>
  <path d="M53.3832 44.9819V50.9912C53.3832 51.8657 52.6743 52.5747 51.7997 52.5747H42.5679C41.6933 52.5747 40.9844 51.8657 40.9844 50.9912V44.9819C40.9844 44.1074 41.6933 43.3984 42.5679 43.3984H51.7997C52.6743 43.3984 53.3832 44.1074 53.3832 44.9819Z" fill="#1B7DE4"></path>
  <path d="M38.1695 8.01114H16.8291C16.368 8.01114 15.9941 7.63771 15.9941 7.17622C15.9941 6.71474 16.368 6.34131 16.8291 6.34131H38.1695C38.6306 6.34131 39.0044 6.71474 39.0044 7.17622C39.0044 7.63771 38.6306 8.01114 38.1695 8.01114ZM38.1695 13.2889H16.8291C16.368 13.2889 15.9941 12.9154 15.9941 12.454C15.9941 11.9925 16.368 11.619 16.8291 11.619H38.1695C38.6306 11.619 39.0044 11.9925 39.0044 12.454C39.0044 12.9154 38.6306 13.2889 38.1695 13.2889ZM38.1695 18.5674H16.8291C16.368 18.5674 15.9941 18.194 15.9941 17.7325C15.9941 17.271 16.368 16.8976 16.8291 16.8976H38.1695C38.6306 16.8976 39.0044 17.271 39.0044 17.7325C39.0044 18.194 38.6306 18.5674 38.1695 18.5674ZM38.1695 23.846H16.8291C16.368 23.846 15.9941 23.4725 15.9941 23.0111C15.9941 22.5496 16.368 22.1761 16.8291 22.1761H38.1695C38.6306 22.1761 39.0044 22.5496 39.0044 23.0111C39.0044 23.4725 38.6306 23.846 38.1695 23.846Z" fill="white"></path>
</svg>
