<?xml version="1.0" encoding="UTF-8"?>
<svg xmlns="http://www.w3.org/2000/svg" width="79" height="79" viewBox="0 0 79 79" fill="none">
  <path d="M70.199 32.037C69.4309 28.8746 68.1767 25.8506 66.481 23.073L69.9793 17.9108L61.0918 9.02334L55.9296 12.5166C53.1497 10.8219 50.1242 9.56774 46.9606 8.79869L45.788 2.68359H33.2122L32.0395 8.79869C28.8767 9.56776 25.852 10.8219 23.073 12.5166L17.9108 9.02087L9.02334 17.9084L12.5166 23.073C10.8221 25.8509 9.56875 28.8749 8.80116 32.037L2.68359 33.2122V45.7855L8.80116 46.9631C9.56921 50.1251 10.8226 53.149 12.5166 55.9271L9.02087 61.0868L17.9084 69.9743L23.0705 66.4761C25.8485 68.1728 28.8735 69.4271 32.037 70.194L33.2097 76.3116H45.7855L46.9582 70.194C50.1225 69.4271 53.1483 68.1728 55.9271 66.4761L61.0868 69.9743L69.9743 61.0868L66.4761 55.9271C68.1713 53.1493 69.4256 50.1253 70.194 46.9631L76.3116 45.7855V33.2122L70.199 32.037ZM39.5001 59.3068C35.582 59.3073 31.7517 58.1459 28.4937 55.9694C25.2357 53.7929 22.6963 50.6992 21.1967 47.0794C19.6971 43.4596 19.3046 39.4765 20.0689 35.6336C20.8331 31.7908 22.7198 28.2609 25.4903 25.4903C28.2609 22.7198 31.7908 20.8331 35.6336 20.0689C39.4765 19.3046 43.4596 19.6971 47.0794 21.1967C50.6992 22.6963 53.7929 25.2357 55.9694 28.4937C58.1459 31.7517 59.3073 35.582 59.3068 39.5001C59.3068 44.7531 57.2201 49.7911 53.5056 53.5056C49.7911 57.2201 44.7531 59.3068 39.5001 59.3068Z" fill="#1569E7"></path>
  <path d="M39.4998 14.2148C34.4989 14.2148 29.6103 15.6978 25.4522 18.4761C21.2941 21.2545 18.0533 25.2034 16.1396 29.8237C14.2258 34.4439 13.7251 39.5278 14.7007 44.4326C15.6763 49.3374 18.0845 53.8428 21.6206 57.3789C25.1568 60.9151 29.6621 63.3233 34.5669 64.2989C39.4717 65.2745 44.5557 64.7738 49.1759 62.86C53.7961 60.9463 57.7451 57.7054 60.5234 53.5473C63.3018 49.3893 64.7847 44.5007 64.7847 39.4998C64.7847 36.1793 64.1307 32.8914 62.86 29.8237C61.5893 26.7559 59.7269 23.9686 57.3789 21.6206C55.031 19.2727 52.2436 17.4102 49.1759 16.1395C46.1082 14.8689 42.8203 14.2148 39.4998 14.2148V14.2148ZM39.4998 59.3066C35.5817 59.3071 31.7514 58.1456 28.4934 55.9691C25.2354 53.7927 22.6961 50.6989 21.1964 47.0791C19.6968 43.4594 19.3043 39.4762 20.0686 35.6333C20.8328 31.7905 22.7195 28.2606 25.4901 25.4901C28.2606 22.7195 31.7905 20.8328 35.6333 20.0686C39.4762 19.3043 43.4594 19.6968 47.0791 21.1964C50.6989 22.696 53.7927 25.2354 55.9691 28.4934C58.1456 31.7514 59.3071 35.5817 59.3066 39.4998C59.3066 44.7529 57.2198 49.7908 53.5053 53.5053C49.7908 57.2198 44.7529 59.3066 39.4998 59.3066Z" fill="#32C997"></path>
  <path d="M34.2629 40.5014L31.8312 34.4579C31.7394 34.2303 31.5819 34.0353 31.3787 33.8976C31.1756 33.76 30.936 33.686 30.6906 33.6852V33.6852C30.4459 33.6847 30.2066 33.757 30.0031 33.8928C29.7996 34.0287 29.641 34.2219 29.5476 34.448L27.0418 40.4891L25.4099 44.4391C25.348 44.589 25.3162 44.7497 25.3164 44.9119C25.3166 45.0741 25.3487 45.2347 25.4109 45.3845C25.4732 45.5344 25.5643 45.6704 25.6792 45.785C25.794 45.8996 25.9303 45.9905 26.0802 46.0524C26.2301 46.1143 26.3908 46.1461 26.553 46.1459C26.7153 46.1458 26.8759 46.1136 27.0257 46.0514C27.1755 45.9892 27.3116 45.898 27.4262 45.7832C27.5408 45.6683 27.6316 45.5321 27.6935 45.3821L29.0069 42.2024H32.2928L33.5716 45.3723C33.629 45.527 33.7169 45.6686 33.83 45.7888C33.9431 45.909 34.0791 46.0053 34.2301 46.072C34.381 46.1387 34.5438 46.1744 34.7088 46.1771C34.8738 46.1798 35.0377 46.1493 35.1908 46.0876C35.3438 46.0258 35.4829 45.934 35.5999 45.8176C35.7168 45.7012 35.8092 45.5624 35.8716 45.4097C35.934 45.2569 35.9652 45.0932 35.9632 44.9281C35.9612 44.7631 35.9262 44.6002 35.8602 44.4489L34.2629 40.5014ZM31.3004 39.746H30.0265L30.6708 38.1832L31.3004 39.746ZM50.132 32.8359C49.8046 32.8359 49.4907 32.966 49.2592 33.1975C49.0277 33.429 48.8976 33.7429 48.8976 34.0703V44.9328C48.8976 45.2602 49.0277 45.5742 49.2592 45.8056C49.4907 46.0371 49.8046 46.1672 50.132 46.1672C50.4594 46.1672 50.7733 46.0371 51.0048 45.8056C51.2363 45.5742 51.3664 45.2602 51.3664 44.9328V34.0703C51.3664 33.7429 51.2363 33.429 51.0048 33.1975C50.7733 32.966 50.4594 32.8359 50.132 32.8359ZM42.353 32.8359H39.2103C38.8829 32.8359 38.5689 32.966 38.3374 33.1975C38.1059 33.429 37.9759 33.7429 37.9759 34.0703V44.9328C37.9759 45.2602 38.1059 45.5742 38.3374 45.8056C38.5689 46.0371 38.8829 46.1672 39.2103 46.1672C39.5376 46.1672 39.8516 46.0371 40.0831 45.8056C40.3146 45.5742 40.4446 45.2602 40.4446 44.9328V40.7359H42.353C43.4006 40.7359 44.4053 40.3198 45.146 39.579C45.8868 38.8382 46.303 37.8335 46.303 36.7859C46.303 35.7383 45.8868 34.7336 45.146 33.9929C44.4053 33.2521 43.4006 32.8359 42.353 32.8359V32.8359ZM42.353 38.2672H40.4446V35.3047H42.353C42.7458 35.3047 43.1226 35.4607 43.4004 35.7385C43.6782 36.0163 43.8342 36.3931 43.8342 36.7859C43.8342 37.1788 43.6782 37.5556 43.4004 37.8333C43.1226 38.1111 42.7458 38.2672 42.353 38.2672V38.2672Z" fill="#717171"></path>
</svg>
