<?xml version="1.0" encoding="UTF-8"?>
<svg xmlns="http://www.w3.org/2000/svg" width="80" height="80" viewBox="0 0 80 80" fill="none">
  <path d="M13.0444 66.7808C12.8881 66.7808 12.7312 66.7221 12.6094 66.6046C5.28437 59.5077 1.25 50.074 1.25 40.0402C1.25 30.0071 5.28437 20.574 12.6094 13.4771C22.6337 3.76583 37.3306 0.150828 50.965 4.0427C51.2969 4.1377 51.4894 4.48333 51.3944 4.8152C51.2994 5.14708 50.955 5.33708 50.6219 5.2452C37.4156 1.47395 23.1831 4.9727 13.4787 14.3746C6.39875 21.234 2.5 30.349 2.5 40.0402C2.5 49.7327 6.39875 58.8477 13.4787 65.7065C13.7262 65.9465 13.7331 66.3421 13.4925 66.5902C13.3706 66.7171 13.2075 66.7808 13.0444 66.7808ZM39.9275 77.5402C33.1631 77.5402 26.3587 75.819 20.2356 72.2883C19.9362 72.1165 19.8337 71.7333 20.0062 71.4346C20.1781 71.1358 20.5606 71.0321 20.86 71.2058C35.5744 79.6908 54.3512 77.3846 66.5212 65.5946C73.6006 58.7358 77.5 49.6215 77.5 39.9296C77.5 30.2377 73.6012 21.1221 66.5212 14.2633L65.7656 13.5733C64.1912 12.1302 62.7038 10.7683 60.9606 9.64208C60.6706 9.45458 60.5875 9.0677 60.775 8.7777C60.9619 8.4877 61.3506 8.4052 61.6388 8.59208C63.4706 9.7752 64.9956 11.1721 66.61 12.6515L67.3769 13.3515C74.7156 20.4621 78.75 29.8958 78.75 39.9296C78.75 49.9627 74.7156 59.3958 67.3906 66.4921C59.8869 73.7621 49.9506 77.5402 39.9275 77.5402Z" fill="#1569E7"></path>
  <path d="M13.0459 66.7815C13.0334 66.7815 13.0215 66.7808 13.0097 66.7802L5.35029 66.3327C5.00529 66.3127 4.74279 66.0171 4.76279 65.6721C4.78279 65.3277 5.07779 65.0702 5.42341 65.0852L12.4209 65.4933V58.3671C12.4209 58.0215 12.7009 57.7421 13.0459 57.7421C13.3909 57.7421 13.6709 58.0215 13.6709 58.3671V66.1565C13.6709 66.3283 13.5997 66.4927 13.4747 66.6115C13.3584 66.7208 13.2047 66.7815 13.0459 66.7815ZM62.5503 17.4202C62.249 17.4202 61.984 17.2021 61.934 16.8958L60.684 9.21833C60.654 9.03271 60.7084 8.84333 60.8328 8.70333C60.9578 8.56271 61.1378 8.48146 61.3259 8.49333L69.6097 8.82896C69.9547 8.84271 70.2228 9.13333 70.2084 9.47833C70.1947 9.82333 69.8978 10.1002 69.5584 10.0777L62.0397 9.77333L63.1665 16.6946C63.2222 17.0358 62.9909 17.3571 62.6503 17.4121C62.6172 17.4177 62.5834 17.4202 62.5503 17.4202Z" fill="#1569E7"></path>
  <path d="M57.9664 30.8246C57.9664 30.8246 57.3789 30.5071 57.1014 30.3339C56.7964 30.1821 56.4845 30.0402 56.1602 29.9227C56.1627 29.8977 56.1633 29.8721 56.1658 29.8471C54.8733 29.2902 53.3727 29.0839 51.8208 29.3527C53.3727 29.0833 54.8733 29.2902 56.1658 29.8471C56.8064 23.1089 52.2127 17.0758 45.8714 16.3521C40.6289 15.7539 35.6695 18.9939 33.7989 24.2346C34.8152 25.0477 35.4752 26.3371 35.4752 27.7939C35.4752 26.3371 34.8152 25.0477 33.7989 24.2346C33.7964 24.2408 33.7939 24.2471 33.7914 24.2533C33.6495 24.1339 33.5033 24.0264 33.3552 23.9227C32.2908 23.0683 31.2845 22.9927 31.2845 22.9927C29.0464 22.4689 26.622 23.2858 25.1033 25.3246C24.2433 26.4796 23.772 27.9077 23.7664 29.3814C23.7664 29.5708 23.7783 29.7571 23.7933 29.9421C23.7433 29.9602 23.6964 29.9839 23.647 30.0027C24.402 29.7871 25.207 29.6658 26.0464 29.6658C27.0952 29.6658 28.0939 29.8483 29.002 30.1777C28.0933 29.8483 27.0945 29.6658 26.0464 29.6658C25.207 29.6658 24.402 29.7871 23.647 30.0027C20.017 31.4146 17.5889 35.0827 17.582 39.2052C17.582 50.0939 35.2883 49.8658 39.5339 49.8952C43.9339 49.9258 62.4189 50.5189 62.4189 39.2052C62.4133 35.7271 60.6833 32.5752 57.9664 30.8246Z" fill="#1569E7"></path>
  <path d="M41.8689 36.2204H37.5476C36.9101 36.2204 36.4151 36.7216 36.4151 37.3672V54.9866H33.6664C33.3695 54.9866 33.1714 55.3316 33.3476 55.6104L38.7239 63.5516C38.8995 63.7741 40.5051 63.7741 40.6814 63.5516L46.0576 55.6104C46.2333 55.3316 46.0576 55.0091 45.7389 54.9866H42.9901L42.9683 37.3335C42.9683 36.6879 42.4733 36.1866 41.8689 36.2204Z" fill="#84DFC1"></path>
</svg>
