<?xml version="1.0" encoding="UTF-8"?>
<svg xmlns="http://www.w3.org/2000/svg" width="67" height="67" viewBox="0 0 67 67" fill="none">
  <path d="M33.6445 45.8532L47.2042 39.6164V26.375L33.6445 32.0365V45.8532Z" fill="#84DFC1"></path>
  <path d="M33.6465 45.8544V32.0378L19.7969 26.3281V39.6177L33.6465 45.8544Z" fill="#84DFC1"></path>
  <path d="M47.2062 26.3757L33.5015 21L19.7969 26.3275L33.6465 32.0372L47.2062 26.3757Z" fill="#009262"></path>
  <path d="M33.5007 7.18889C35.1968 7.18889 36.5717 5.81395 36.5717 4.11788C36.5717 2.42181 35.1968 1.04688 33.5007 1.04688C31.8046 1.04688 30.4297 2.42181 30.4297 4.11788C30.4297 5.81395 31.8046 7.18889 33.5007 7.18889Z" fill="#1569E7"></path>
  <path d="M14.8935 14.8941C16.0928 13.6947 16.0928 11.7503 14.8935 10.551C13.6941 9.35173 11.7497 9.35176 10.5504 10.5511C9.35112 11.7504 9.35115 13.6949 10.5505 14.8941C11.7498 16.0934 13.6943 16.0934 14.8935 14.8941Z" fill="#1569E7"></path>
  <path d="M4.11788 36.5717C5.81395 36.5717 7.18889 35.1968 7.18889 33.5007C7.18889 31.8046 5.81395 30.4297 4.11788 30.4297C2.42181 30.4297 1.04688 31.8046 1.04688 33.5007C1.04688 35.1968 2.42181 36.5717 4.11788 36.5717Z" fill="#1569E7"></path>
  <path d="M14.8935 56.4488C16.0928 55.2494 16.0928 53.305 14.8935 52.1057C13.6941 50.9064 11.7497 50.9065 10.5504 52.1058C9.35112 53.3051 9.35115 55.2496 10.5505 56.4488C11.7498 57.6481 13.6943 57.6481 14.8935 56.4488Z" fill="#1569E7"></path>
  <path d="M33.5007 65.9545C35.1968 65.9545 36.5717 64.5796 36.5717 62.8835C36.5717 61.1874 35.1968 59.8125 33.5007 59.8125C31.8046 59.8125 30.4297 61.1874 30.4297 62.8835C30.4297 64.5796 31.8046 65.9545 33.5007 65.9545Z" fill="#1569E7"></path>
  <path d="M56.4482 56.4488C57.6475 55.2494 57.6475 53.305 56.4481 52.1057C55.2488 50.9064 53.3044 50.9064 52.1051 52.1058C50.9058 53.3051 50.9058 55.2496 52.1052 56.4488C53.3045 57.6481 55.2489 57.6481 56.4482 56.4488Z" fill="#1569E7"></path>
  <path d="M62.8835 36.5717C64.5796 36.5717 65.9545 35.1968 65.9545 33.5007C65.9545 31.8046 64.5796 30.4297 62.8835 30.4297C61.1874 30.4297 59.8125 31.8046 59.8125 33.5007C59.8125 35.1968 61.1874 36.5717 62.8835 36.5717Z" fill="#1569E7"></path>
  <path d="M56.4482 14.898C57.6475 13.6987 57.6475 11.7542 56.4481 10.5549C55.2488 9.35564 53.3044 9.35567 52.1051 10.555C50.9058 11.7543 50.9058 13.6988 52.1052 14.8981C53.3045 16.0973 55.2489 16.0973 56.4482 14.898Z" fill="#1569E7"></path>
  <path d="M33.4984 16.6156C32.9205 16.6156 32.4515 16.1466 32.4515 15.5688V9.70313C32.4515 9.12525 32.9205 8.65625 33.4984 8.65625C34.0762 8.65625 34.5452 9.12525 34.5452 9.70313V15.5688C34.5452 16.1466 34.0762 16.6156 33.4984 16.6156ZM20.8176 21.8678C20.5496 21.8678 20.2821 21.7657 20.0774 21.5611L15.9297 17.4134C15.5209 17.0046 15.5209 16.3419 15.9297 15.9331C16.3385 15.5243 17.0012 15.5243 17.41 15.9331L21.5577 20.0808C21.9665 20.4896 21.9665 21.1523 21.5577 21.5611C21.3536 21.7657 21.0856 21.8678 20.8176 21.8678ZM15.5654 34.5486H9.69922C9.12134 34.5486 8.65234 34.0796 8.65234 33.5017C8.65234 32.9239 9.12134 32.4549 9.69922 32.4549H15.5654C16.1433 32.4549 16.6123 32.9239 16.6123 33.5017C16.6123 34.0796 16.1438 34.5486 15.5654 34.5486ZM16.6704 51.3771C16.4024 51.3771 16.1349 51.2751 15.9302 51.0704C15.5214 50.6616 15.5214 49.9989 15.9302 49.5901L20.0779 45.4424C20.4867 45.0336 21.1494 45.0336 21.5582 45.4424C21.967 45.8512 21.967 46.5139 21.5582 46.9227L17.4105 51.0704C17.2058 51.2751 16.9378 51.3771 16.6704 51.3771ZM33.4984 58.3472C32.9205 58.3472 32.4515 57.8782 32.4515 57.3004V51.4347C32.4515 50.8568 32.9205 50.3878 33.4984 50.3878C34.0762 50.3878 34.5452 50.8568 34.5452 51.4347V57.3004C34.5452 57.8788 34.0762 58.3472 33.4984 58.3472ZM50.3263 51.3771C50.0583 51.3771 49.7909 51.2751 49.5862 51.0704L45.4385 46.9227C45.0297 46.5139 45.0297 45.8512 45.4385 45.4424C45.8473 45.0336 46.51 45.0336 46.9188 45.4424L51.0665 49.5901C51.4753 49.9989 51.4753 50.6616 51.0665 51.0704C50.8623 51.2751 50.5943 51.3771 50.3263 51.3771ZM57.2975 34.5486H51.4313C50.8534 34.5486 50.3844 34.0796 50.3844 33.5017C50.3844 32.9239 50.8534 32.4549 51.4313 32.4549H57.2975C57.8754 32.4549 58.3444 32.9239 58.3444 33.5017C58.3444 34.0796 57.8754 34.5486 57.2975 34.5486ZM46.1791 21.8678C45.9111 21.8678 45.6437 21.7657 45.439 21.5611C45.0302 21.1523 45.0302 20.4896 45.439 20.0808L49.5867 15.9331C49.9955 15.5243 50.6582 15.5243 51.067 15.9331C51.4758 16.3419 51.4758 17.0046 51.067 17.4134L46.9193 21.5611C46.7146 21.7657 46.4466 21.8678 46.1791 21.8678Z" fill="#1569E7"></path>
</svg>
