<svg width="104" height="78" viewBox="0 0 104 78" fill="none" xmlns="http://www.w3.org/2000/svg">
<path d="M57.3407 38.1835C57.3837 38.1048 57.4184 38.022 57.4562 37.9412L71.1846 8.1045C71.2971 7.86119 71.4106 7.61891 71.521 7.37458C71.5598 7.29075 71.5987 7.21715 71.7111 7.21817C71.9636 7.21817 72.2172 7.21817 72.5054 7.21817C72.4421 7.37151 72.4032 7.48499 72.3501 7.59437C67.4553 18.2658 62.5609 28.9368 57.6668 39.6075C57.4716 40.0328 57.2702 40.4571 57.0821 40.8854C56.9165 41.2637 56.941 41.6317 57.215 41.9527C57.3342 42.1025 57.4939 42.2149 57.6751 42.2765C57.8563 42.3382 58.0515 42.3464 58.2373 42.3003C58.6462 42.2175 58.8507 41.9343 59.0101 41.5847C63.8947 30.9548 68.7775 20.3271 73.6586 9.70132C74.1248 8.68721 74.5787 7.67002 75.0591 6.66C75.3229 6.09978 75.1092 5.31159 74.3732 5.15927V5.0918H70.6868C70.6904 5.10218 70.6917 5.11322 70.6906 5.12416C70.6895 5.13509 70.6861 5.14567 70.6806 5.15518C70.2799 5.2431 70.0673 5.52627 69.9027 5.87079C69.3575 7.05801 68.8122 8.2449 68.267 9.43144C64.3905 17.892 60.5098 26.3504 56.6251 34.8068C56.5699 34.9285 56.5116 35.0481 56.4452 35.1892C56.2918 35.0869 56.2898 34.9173 56.207 34.7976C55.9228 34.3887 55.9923 34.0115 56.1978 33.5648C60.197 24.8664 64.184 16.1629 68.1586 7.45432C68.2834 7.18035 68.4122 6.90739 68.5359 6.63648C68.8283 5.9863 68.5164 5.33613 67.8264 5.14905C67.823 5.12953 67.8153 5.11102 67.8039 5.09486H64.1901C64.1957 5.11592 64.1927 5.13832 64.1819 5.15722C63.7832 5.23798 63.5471 5.50174 63.3856 5.85443C62.7626 7.21408 62.1387 8.57305 61.5137 9.93134L53.2996 27.8215C53.2618 27.9023 53.2229 27.982 53.1718 28.0863C53.0062 27.9104 52.9673 27.6855 52.8549 27.5066C52.6443 27.1734 52.678 26.8759 52.8447 26.515C55.8529 20.0003 58.8517 13.4814 61.8409 6.95851C61.9687 6.68044 62.0647 6.4034 61.9942 6.08751C61.9547 5.88353 61.8523 5.69703 61.7014 5.55421C61.5505 5.41138 61.3587 5.31939 61.1529 5.29114C61.0307 5.27664 60.9078 5.27083 60.7848 5.27377C59.8464 5.27377 58.9079 5.29115 57.9705 5.26661C57.3632 5.25025 56.988 5.50991 56.7437 6.04969C55.0971 9.65089 53.4441 13.2504 51.7845 16.8482C51.1977 18.1261 50.611 19.4039 50.0242 20.6818C49.9833 20.7728 49.9342 20.8597 49.8667 20.9936C49.7032 20.6358 49.56 20.3148 49.4077 19.9928C49.3515 19.8691 49.4384 19.7781 49.4823 19.6861C49.9669 18.6188 50.4539 17.5529 50.9432 16.4883C52.4208 13.262 53.898 10.0353 55.3748 6.80823C55.5793 6.36455 55.519 5.92394 55.2143 5.59477C55.1305 5.49666 55.0267 5.41762 54.9097 5.36296C54.7928 5.3083 54.6656 5.27928 54.5366 5.27786C53.4304 5.27786 52.3243 5.26865 51.2182 5.27786C50.7428 5.27786 50.4351 5.55899 50.2429 5.9771L49.1388 8.38052C48.3435 10.1143 47.5471 11.8464 46.7497 13.5768C46.7099 13.6648 46.6925 13.7711 46.5811 13.8355L45.754 12.0434C44.8554 10.0867 43.9497 8.1321 43.0644 6.1693C42.8599 5.70824 42.6186 5.30341 42.1351 5.09486H41.6659C41.581 5.20527 41.4389 5.22367 41.3326 5.29932C40.986 5.54876 40.8123 5.87488 40.8644 6.30628C40.8953 6.45946 40.9494 6.60701 41.0249 6.74383C42.4561 9.86932 43.8873 12.9938 45.3185 16.1172C45.3664 16.2032 45.3924 16.2996 45.3944 16.398C45.3963 16.4964 45.3742 16.5937 45.3298 16.6816C43.5912 20.4497 41.8581 24.2196 40.1304 27.9912C40.1042 28.0759 40.0575 28.1528 39.9944 28.2151C39.9097 28.1037 39.8434 27.9795 39.7981 27.8471C36.4675 20.5969 33.1372 13.3461 29.8072 6.09467C29.7556 5.97133 29.694 5.85236 29.6232 5.73891C29.3165 5.28092 28.7604 5.12553 28.3035 5.37088C27.7719 5.65304 27.5735 6.18872 27.8036 6.73054C27.8434 6.82356 27.8874 6.91353 27.9283 7.00553L38.9159 30.9886C38.9593 31.0933 39.0081 31.1956 39.0621 31.2953C39.4782 32.0109 40.4115 32.0293 40.8562 31.3372C40.9354 31.2027 41.0054 31.063 41.0658 30.9191L46.4175 19.3017C46.4587 19.1812 46.5195 19.0682 46.5974 18.9674C46.7538 19.1913 46.8233 19.453 46.9562 19.683C47.0646 19.8691 47.0391 20.0296 46.9511 20.2167C46.487 21.2073 46.0311 22.203 45.5792 23.1966C43.9435 26.7563 42.3079 30.3159 40.6722 33.8755C40.6013 34.0153 40.564 34.1696 40.5631 34.3263C40.5622 34.483 40.5978 34.6377 40.6671 34.7782C40.754 34.9602 40.8368 35.1432 40.9196 35.3262C41.3561 36.2922 41.7947 37.2573 42.2261 38.2254C42.3713 38.5505 42.59 38.7846 42.9417 38.8746C43.507 39.0187 43.9752 38.7958 44.2308 38.2479C44.7624 37.1039 45.2868 35.9579 45.8143 34.812C47.1092 31.9931 48.4062 29.175 49.7052 26.3576C49.7471 26.2666 49.7614 26.1531 49.8831 26.0938C49.9925 26.332 50.0804 26.5631 50.2 26.7757C50.3196 26.9883 50.2961 27.157 50.2 27.3686C48.1452 31.8374 46.0931 36.3089 44.0437 40.7832C43.9926 40.8946 43.9364 41.005 43.8965 41.1205C43.8463 41.2547 43.8255 41.3982 43.8354 41.5411C43.8454 41.6841 43.8859 41.8232 43.9542 41.9492C44.0225 42.0752 44.117 42.185 44.2314 42.2713C44.3458 42.3576 44.4774 42.4184 44.6172 42.4495C45.113 42.5773 45.5761 42.3473 45.8133 41.8361C46.3585 40.6605 46.899 39.4842 47.4347 38.3072C48.7214 35.5088 50.0088 32.7108 51.2969 29.9131C51.3439 29.8109 51.3582 29.679 51.4952 29.6187C51.576 29.7915 51.6516 29.953 51.7263 30.1145C51.8806 30.4488 52.0248 30.7892 52.1924 31.1164C52.2745 31.2896 52.4036 31.4363 52.565 31.5397C52.7264 31.6431 52.9137 31.699 53.1054 31.7011C53.5255 31.7164 53.821 31.4967 54.0356 31.1481C54.0957 31.041 54.15 30.9308 54.1982 30.8178L64.2514 8.97652C64.4893 8.45924 64.7278 7.9423 64.967 7.4257C65.0141 7.32347 65.0458 7.21204 65.193 7.22124C65.4363 7.23248 65.6816 7.19977 65.93 7.2427C65.9403 7.41956 65.838 7.54939 65.7757 7.68536C62.5957 14.6247 59.4136 21.5627 56.2295 28.4993C55.4287 30.244 54.6275 31.9884 53.8261 33.7324C53.7598 33.8558 53.7219 33.9924 53.7152 34.1323C53.7085 34.2722 53.7331 34.4119 53.7872 34.541C54.3324 35.7535 54.8797 36.9635 55.429 38.1712C55.6161 38.5801 55.9576 38.759 56.3992 38.7621C56.5955 38.7683 56.7894 38.7169 56.9567 38.614C57.1241 38.5112 57.2576 38.3615 57.3407 38.1835ZM47.8538 16.1653C48.2798 15.233 48.7085 14.301 49.1399 13.3693C50.018 11.4648 50.9003 9.56229 51.7672 7.65265C51.8694 7.42161 51.9962 7.3296 52.2425 7.35822C52.4407 7.36874 52.6393 7.36874 52.8375 7.35822L48.2229 17.4176C48.0552 17.0547 47.9233 16.7633 47.7874 16.4751C47.7311 16.3544 47.8139 16.2624 47.8579 16.1653H47.8538ZM48.597 23.7793C47.9837 25.1186 47.3703 26.4564 46.7569 27.7929C45.6658 30.1741 44.574 32.5575 43.4815 34.9428C43.4222 35.0726 43.3608 35.2004 43.2821 35.3691C43.2599 35.3457 43.2394 35.3208 43.2208 35.2945C43.0787 34.9796 42.8528 34.6739 42.82 34.3478C42.7894 34.0411 43.0419 33.7539 43.1758 33.4615C44.7938 29.9182 46.4144 26.3777 48.0378 22.8399C48.0796 22.7098 48.1494 22.5904 48.2423 22.4902C48.3956 22.8255 48.549 23.1455 48.688 23.4675C48.7371 23.5861 48.6512 23.6812 48.6011 23.7793H48.597ZM51.4922 24.5399C51.3286 24.1862 51.2008 23.902 51.0648 23.6199C50.9933 23.4716 51.0781 23.3592 51.1323 23.2416C51.6578 22.0946 52.1853 20.949 52.7148 19.8047C54.5713 15.77 56.4275 11.735 58.2833 7.69967C58.316 7.62913 58.3528 7.55962 58.3855 7.48703C58.4 7.44571 58.4282 7.41055 58.4654 7.38734C58.5025 7.36412 58.5464 7.35421 58.59 7.35925C58.8343 7.35925 59.0776 7.35925 59.372 7.35925L51.4922 24.5399Z" fill="#990D81"/>
<path d="M17.224 51.3244L14.425 58.9548L13.5428 61.2959C13.5315 61.3276 11.7721 61.392 11.7721 61.392C11.7656 61.3486 11.7553 61.3058 11.7415 61.2642C10.9264 59.2482 10.1099 57.2326 9.29205 55.2173C9.26854 55.159 9.25832 55.0895 9.18165 55.0721C9.16925 55.0912 9.15799 55.111 9.14791 55.1314L6.6116 61.392H4.8737C4.89721 61.2611 4.82054 61.1548 4.77965 61.0423C4.31689 59.7951 3.85379 58.551 3.39035 57.3099C2.75857 55.6061 2.12645 53.9043 1.49399 52.2046L1.48581 52.1821L1.21593 51.4634L1.16992 51.3387C1.91006 51.3387 2.65225 51.3387 3.39239 51.3203C3.58765 51.3203 3.63263 51.4225 3.68681 51.5677C4.19387 52.9015 4.70331 54.2349 5.21514 55.5679C5.40733 56.0648 5.5985 56.5616 5.81625 57.1269C5.87861 56.9859 5.91848 56.902 5.95222 56.8203C6.65624 55.0912 7.3606 53.3642 8.0653 51.6393C8.21456 51.2753 8.13584 51.3326 8.54476 51.3254C9.0559 51.3254 9.56705 51.3254 10.0854 51.3254C10.3808 51.3254 10.3818 51.3254 10.4943 51.6035C11.1669 53.3271 11.8393 55.0513 12.5113 56.7763C12.5501 56.8785 12.5961 56.9808 12.6626 57.1362C12.7208 56.9992 12.7648 56.9153 12.7934 56.8295L14.8564 51.6372C14.9801 51.3244 14.9811 51.3244 15.3021 51.3244H17.224Z" fill="#990D81"/>
<path d="M40.5523 57.7117C40.5523 55.6473 40.5523 53.5826 40.5523 51.5176C40.5523 51.2211 40.5523 51.2191 40.2619 51.2181C39.6485 51.2181 39.0352 51.2334 38.4218 51.2099C38.1304 51.1986 37.9679 51.2866 37.8186 51.5472C36.8812 53.1829 35.9243 54.8073 34.9715 56.4338C34.9133 56.536 34.8765 56.6526 34.7507 56.7231C34.6843 56.6096 34.626 56.5187 34.5729 56.4164C33.6528 54.7685 32.7389 53.1226 31.8321 51.4695C31.7974 51.3837 31.7355 51.3117 31.6559 51.2644C31.5763 51.2172 31.4834 51.1973 31.3915 51.2078C30.7219 51.2242 30.0523 51.2078 29.3827 51.215C28.9533 51.215 28.9932 51.1639 28.9932 51.6116C28.9932 54.6588 28.9932 57.7059 28.9932 60.753C28.9932 60.9646 28.9983 61.1773 29.0013 61.3889H31.1482V55.4136C31.2565 55.4361 31.2719 55.5066 31.3015 55.5608C32.3483 57.4275 33.3945 59.2945 34.44 61.1619C34.4644 61.2113 34.4856 61.2621 34.5033 61.3143C34.6005 61.3725 34.6403 61.3051 34.6822 61.2345L35.3477 60.11C36.2337 58.6106 37.1214 57.1143 38.0108 55.6211C38.058 55.5028 38.1382 55.4006 38.2419 55.3267V55.5986C38.2419 57.406 38.2419 59.2121 38.2419 61.0168C38.2419 61.1394 38.248 61.2621 38.2511 61.3848H40.5308C40.5605 61.2655 40.5685 61.1419 40.5543 61.0198C40.5536 59.9198 40.5529 58.8171 40.5523 57.7117Z" fill="#990D81"/>
<path d="M27.1242 59.3756C25.0592 59.3756 22.9938 59.3756 20.9281 59.3756C20.6132 59.3756 20.6112 59.3756 20.6102 59.076C20.6102 58.5403 20.6102 58.0036 20.6102 57.468C20.6102 57.1776 20.6102 57.1766 20.9015 57.1735H21.0681C22.3746 57.1735 23.6811 57.1735 24.9876 57.1735C25.2452 57.1735 25.2493 57.1735 25.2504 56.921C25.2504 56.4416 25.2504 55.9611 25.2504 55.4806C25.2504 55.1668 25.2504 55.1944 24.9508 55.1923C24.1698 55.1872 23.3877 55.1923 22.6067 55.1923C22.026 55.1923 21.4454 55.1923 20.8688 55.1923C20.6194 55.1923 20.6153 55.1862 20.6132 54.9296C20.6132 54.4829 20.6132 54.0361 20.6132 53.5894C20.6132 53.3583 20.6194 53.3532 20.8586 53.3532C21.6171 53.3532 22.3767 53.3532 23.1362 53.3532C24.4646 53.3532 25.7935 53.3532 27.1232 53.3532C27.3778 53.3532 27.3808 53.3532 27.3829 53.0946C27.3829 52.6253 27.3829 52.1561 27.3829 51.6879C27.3829 51.3107 27.4278 51.3301 27.0199 51.3301C24.2509 51.3301 21.4822 51.3301 18.7138 51.3301C18.2139 51.3301 18.2814 51.2749 18.2814 51.7492C18.2814 54.964 18.2814 58.1795 18.2814 61.3956H27.5311C27.5311 60.8599 27.5434 60.3242 27.5434 59.7886C27.5372 59.3163 27.5863 59.3807 27.1242 59.3756Z" fill="#990D81"/>
<path d="M97.0174 55.1695C98.5631 53.8712 100.108 52.5719 101.653 51.2715V51.2051C100.732 51.2051 99.8216 51.2214 98.9066 51.2112C98.6632 51.2023 98.4253 51.2859 98.2411 51.4453C96.8392 52.5882 95.4322 53.7244 94.02 54.8536C93.9403 54.917 93.88 55.0336 93.7318 54.9988V54.7279C93.7318 53.6443 93.7318 52.561 93.7318 51.478C93.7318 51.2235 93.7267 51.2194 93.4711 51.2184C92.8679 51.2184 92.2651 51.2184 91.6626 51.2184C91.405 51.2184 91.405 51.2184 91.3989 51.475C91.3989 51.5414 91.3989 51.6089 91.3989 51.6794V60.2892C91.3989 60.557 91.406 60.8259 91.3989 61.0927C91.3928 61.2634 91.448 61.3278 91.6258 61.3258C92.2515 61.3166 92.8761 61.3176 93.5017 61.3258C93.6684 61.3258 93.7583 61.2849 93.7369 61.1019C93.7326 61.0338 93.7326 60.9655 93.7369 60.8975C93.7369 59.9699 93.7369 59.043 93.7369 58.1168C93.7369 58.0146 93.7103 57.8929 93.8217 57.8101C94.1979 57.5314 94.5728 57.2502 94.9462 56.9667C94.9601 56.953 94.977 56.9428 94.9955 56.9368C95.014 56.9309 95.0337 56.9294 95.053 56.9324C95.0722 56.9355 95.0904 56.9431 95.1062 56.9546C95.1219 56.966 95.1347 56.9811 95.1436 56.9984C95.1844 57.0516 95.2274 57.1007 95.2703 57.1548C96.3546 58.475 97.4383 59.7954 98.5212 61.1162C98.5682 61.1831 98.6314 61.2369 98.7049 61.2727C98.7784 61.3085 98.8598 61.325 98.9414 61.3207C99.7234 61.3094 100.505 61.3207 101.287 61.3135C101.356 61.3135 101.443 61.3565 101.491 61.2665C101.447 61.1635 101.383 61.0709 101.301 60.9946C99.8574 59.2049 98.4129 57.4152 96.9673 55.6255C96.768 55.3791 96.7189 55.42 97.0174 55.1695Z" fill="#990D81"/>
<path d="M52.0468 60.1186C50.7076 57.2991 49.3715 54.4789 48.0384 51.6581C47.9137 51.3923 47.7716 51.3003 47.4864 51.3187C47.0853 51.3432 46.6832 51.3432 46.2821 51.3187C46.0122 51.3033 45.8732 51.3902 45.7567 51.6448C44.6761 54.0063 43.5781 56.3596 42.4853 58.717C42.0764 59.6064 41.6675 60.4999 41.2637 61.3913H43.4749C43.846 60.641 44.2201 59.8937 44.582 59.1423C44.6608 58.9798 44.7701 58.9521 44.9286 58.9532C45.8885 58.9532 46.8495 58.9532 47.8104 58.9532C48.1233 58.9532 48.4361 58.9532 48.7489 58.9532C48.8037 58.9468 48.859 58.9586 48.9064 58.9867C48.9539 59.0147 48.9908 59.0575 49.0116 59.1086C49.3715 59.8395 49.7385 60.5664 50.1014 61.2963C50.1103 61.3296 50.1134 61.3642 50.1106 61.3985H52.5907C52.6398 61.2963 52.5662 61.2298 52.5304 61.1532C52.3729 60.8076 52.2094 60.4611 52.0468 60.1186ZM45.4622 57.1539L46.8331 54.4694C47.3024 55.4027 47.7338 56.2645 48.1836 57.1601L45.4622 57.1539Z" fill="#990D81"/>
<path d="M65.7895 56.2372C65.6812 56.1646 65.5472 56.1247 65.4654 56.0174C65.4736 55.999 65.4757 55.9877 65.4828 55.9816C65.5268 55.9468 65.5707 55.9131 65.6157 55.8794C66.1841 55.4704 66.5194 54.9245 66.5665 54.2232C66.6687 52.7726 65.9531 51.6971 64.5536 51.3537C64.1176 51.2554 63.6714 51.2097 63.2246 51.2177C61.2141 51.2177 59.2036 51.2177 57.193 51.2177C56.8986 51.2177 56.8945 51.2177 56.8945 51.507C56.8945 54.6788 56.8945 57.851 56.8945 61.0235C56.8945 61.3149 56.8945 61.3149 57.1879 61.318H57.3218C59.1988 61.318 61.0754 61.318 62.9516 61.318C63.3536 61.3204 63.7554 61.2992 64.1549 61.2546C65.7629 61.0695 66.9652 59.9767 66.8813 58.1683C66.8741 57.781 66.7705 57.4017 66.5799 57.0645C66.3893 56.7273 66.1176 56.443 65.7895 56.2372ZM59.2264 53.5127C59.2264 53.2684 59.2325 53.2602 59.4595 53.2602C60.6535 53.2602 61.8482 53.2619 63.0436 53.2653C63.2672 53.2625 63.4899 53.2938 63.704 53.3584C64.0874 53.4811 64.2551 53.7356 64.2489 54.1762C64.2428 54.5923 64.0649 54.8407 63.6948 54.9552C63.4245 55.0265 63.1451 55.0575 62.8658 55.0472C62.3628 55.0523 61.8608 55.0472 61.3579 55.0472C60.7332 55.0472 60.1076 55.0472 59.482 55.0472C59.2315 55.0472 59.2284 55.0411 59.2264 54.7835C59.2237 54.3609 59.2237 53.9373 59.2264 53.5127ZM63.9749 59.0832C63.5793 59.2662 63.151 59.2734 62.7277 59.2877C62.2698 59.3 61.8077 59.2877 61.3538 59.2877C60.7404 59.2877 60.127 59.2877 59.5137 59.2877C59.2325 59.2877 59.2284 59.2877 59.2274 59.0198C59.2274 58.4494 59.2274 57.88 59.2274 57.3106C59.2274 57.1511 59.2795 57.0979 59.439 57.0989C60.6658 57.1061 61.8925 57.0989 63.1193 57.1133C63.3882 57.1158 63.6546 57.1652 63.9064 57.2594C64.3072 57.4097 64.4994 57.7113 64.5198 58.1325C64.5403 58.5537 64.3798 58.8972 63.9749 59.0832Z" fill="#990D81"/>
<path d="M89.7262 51.2135C89.2007 51.2227 88.6763 51.2135 88.1509 51.2135C87.7665 51.2135 87.7941 51.1818 87.7941 51.5795C87.7941 53.3657 87.7941 55.1524 87.7941 56.9394C87.7941 57.0508 87.8319 57.1755 87.7225 57.3074C87.6274 57.199 87.5497 57.1029 87.4639 57.016C85.6408 55.1582 83.8187 53.3003 81.9977 51.4425C81.9302 51.3632 81.8451 51.3008 81.7493 51.2602C81.6535 51.2195 81.5495 51.2018 81.4456 51.2084C81.0101 51.2247 80.5746 51.2084 80.1391 51.2135C79.7302 51.2135 79.7517 51.1695 79.7517 51.5836V60.9304C79.7517 60.9979 79.7517 61.0643 79.7517 61.1349C79.7445 61.2575 79.7916 61.3189 79.9234 61.3178C80.5266 61.3178 81.1297 61.3178 81.7329 61.3178C81.8576 61.3178 81.922 61.2759 81.9179 61.1461C81.9179 61.0561 81.9179 60.9672 81.9179 60.8772C81.9179 59.08 81.9179 57.2822 81.9179 55.4836C81.9025 55.3628 81.9112 55.2402 81.9435 55.1227C82.058 55.134 82.1009 55.225 82.1602 55.2812C82.562 55.684 82.9607 56.0909 83.3614 56.4957C84.8826 58.0373 86.4038 59.5799 87.9249 61.1236C87.9824 61.1898 88.0543 61.242 88.1352 61.276C88.216 61.3101 88.3035 61.3251 88.3911 61.3199C88.8 61.3066 89.2181 61.3199 89.6311 61.3199C89.9572 61.3199 89.9573 61.3199 89.9603 60.9907V51.6408C89.9603 51.5733 89.9552 51.5059 89.9603 51.4363C89.9767 51.2646 89.899 51.2104 89.7262 51.2135Z" fill="#990D81"/>
<path d="M76.6534 56.9733C75.7824 55.1394 74.9127 53.3054 74.0445 51.4714C73.9576 51.2863 73.8574 51.2035 73.6447 51.2117C73.1878 51.2281 72.7247 51.2301 72.2728 51.2117C72.0489 51.2025 71.9396 51.2761 71.8455 51.4806C70.3802 54.6606 68.9105 57.8386 67.4363 61.0145C67.3965 61.1014 67.3198 61.1821 67.3658 61.3212C68.0262 61.3212 68.6948 61.3212 69.3603 61.3212C69.5249 61.3212 69.5648 61.2097 69.6149 61.1024C69.9492 60.4338 70.2906 59.7734 70.6136 59.0946C70.6437 59.0131 70.7005 58.9441 70.7747 58.899C70.849 58.8539 70.9364 58.8353 71.0226 58.8462C72.2391 58.8554 73.4556 58.8574 74.6722 58.8462C74.9052 58.8462 75.0279 58.9116 75.1291 59.1283C75.4419 59.7939 75.7824 60.4471 76.1126 61.1044C76.1667 61.2138 76.2035 61.3232 76.3671 61.3222C77.1257 61.315 77.8842 61.3222 78.6683 61.3222C78.6606 61.2072 78.6255 61.0958 78.5661 60.9971C77.9275 59.6538 77.2899 58.3126 76.6534 56.9733ZM71.5797 57.0756C71.6053 56.8507 72.602 54.8541 72.9087 54.4176L74.2448 57.0756H71.5797Z" fill="#990D81"/>
</svg>
