<?xml version="1.0" encoding="UTF-8"?>
<svg xmlns="http://www.w3.org/2000/svg" width="71" height="71" viewBox="0 0 71 71" fill="none">
  <path d="M57.7959 2.27344H3.83587C2.55788 2.27344 1.42188 3.40944 1.42188 4.82944V63.0494C1.42188 64.4694 2.55788 65.4634 3.83587 65.4634H57.7959C59.2159 65.4634 60.2099 64.3274 60.2099 63.0494V4.82944C60.3519 3.40944 59.2159 2.27344 57.7959 2.27344V2.27344Z" fill="#DBEDFF"></path>
  <path d="M68.5874 49.9833L66.3154 49.5573C66.0314 48.4213 65.6054 47.2853 64.8954 46.2913L66.1734 44.3033C66.4574 43.7353 66.4574 43.0253 66.0314 42.5993L63.9014 40.3273C63.4754 39.9013 62.7654 39.7593 62.1974 40.1853L60.2094 41.4633C59.2154 40.8953 58.0794 40.3273 56.9434 40.0433L56.5174 37.7713C56.3754 37.2033 55.8074 36.7773 55.2394 36.7773H52.2574C51.6894 36.7773 51.1214 37.2033 50.9794 37.7713L50.4114 40.0433C49.2754 40.3273 48.1394 40.7533 47.1454 41.4633L45.1574 40.1853C44.5894 39.9013 43.8794 39.9013 43.4534 40.3273L41.3234 42.4573C40.8974 42.8833 40.7554 43.5933 41.1814 44.1613L42.4594 46.1493C41.8914 47.1433 41.3234 48.2793 41.0394 49.4153L38.7674 49.9833C38.1994 50.1253 37.7734 50.6933 37.7734 51.2613V54.2433C37.7734 54.8113 38.1994 55.3793 38.7674 55.5213L41.0394 55.9473C41.3234 57.0833 41.7494 58.2193 42.4594 59.2133L41.1814 61.2013C40.8974 61.7693 40.8974 62.4793 41.3234 62.9053L43.4534 65.0353C43.8794 65.4613 44.5894 65.4613 45.1574 65.1773L47.1454 63.8993C48.1394 64.4673 49.2754 65.0353 50.4114 65.3193L50.8374 67.5913C50.9794 68.1593 51.5474 68.5853 52.1154 68.5853H55.0974C55.6654 68.5853 56.2334 68.1593 56.3754 67.5913L56.8014 65.3193C57.9374 65.0353 59.0734 64.6093 60.0674 63.8993L62.0554 65.1773C62.3394 65.3193 62.4814 65.4613 62.7654 65.4613C63.0494 65.4613 63.4754 65.3193 63.7594 65.0353L65.8894 62.9053C66.3154 62.4793 66.4574 61.7693 66.0314 61.2013L64.7534 59.2133C65.3214 58.2193 65.8894 57.0833 66.1734 55.9473L68.4454 55.5213C69.0134 55.3793 69.4394 54.8113 69.4394 54.2433V51.2613C69.5814 50.6933 69.1554 50.1253 68.5874 49.9833V49.9833ZM61.3454 52.6813C61.3454 56.9413 57.9374 60.3493 53.6774 60.3493C49.4174 60.3493 46.0094 56.9413 46.0094 52.6813C46.0094 48.4213 49.4174 45.0133 53.6774 45.0133C57.7954 45.0133 61.3454 48.5633 61.3454 52.6813Z" fill="#32C997"></path>
  <path d="M53.6774 44.4453C49.1334 44.4453 45.4414 48.1373 45.4414 52.6813C45.4414 57.2253 49.1334 60.9173 53.6774 60.9173C58.2214 60.9173 61.9134 57.2253 61.9134 52.6813C61.9134 48.1373 58.2214 44.4453 53.6774 44.4453Z" fill="white"></path>
  <path d="M54.0392 28H7.96078C6.84034 28 6 28.8264 6 29.9282V35.2803C6 36.3822 6.84034 37.2086 7.96078 37.2086H54.0392C55.1597 37.2086 56 36.3822 56 35.2803V29.9282C55.8599 28.8264 55.0196 28 54.0392 28ZM21.5462 40.2386H7.2605C6.56022 40.2386 6 40.7896 6 41.4782V48.5025C6 49.1911 6.56022 49.742 7.2605 49.742H21.5462C22.2465 49.742 22.8067 49.1911 22.8067 48.5025V41.4782C22.8067 40.7896 22.2465 40.2386 21.5462 40.2386ZM21.5462 52.4966H7.2605C6.56022 52.4966 6 53.0476 6 53.7362V60.7604C6 61.4491 6.56022 62 7.2605 62H21.5462C22.2465 62 22.8067 61.4491 22.8067 60.7604V53.7362C22.8067 53.0476 22.2465 52.4966 21.5462 52.4966Z" fill="#F5F7FA"></path>
  <path d="M54.0392 16H7.96078C6.84034 16 6 16.8077 6 17.8846V23.1154C6 24.1923 6.84034 25 7.96078 25H54.0392C55.1597 25 56 24.1923 56 23.1154V17.8846C55.8599 16.8077 55.0196 16 54.0392 16Z" fill="#F5F7FA"></path>
  <path d="M57.7959 2.27344H3.83587C2.55788 2.27344 1.42188 3.40944 1.42188 4.82944V12.4974H60.3519V4.82944C60.3519 3.40944 59.2159 2.27344 57.7959 2.27344V2.27344Z" fill="#1569E7"></path>
  <path d="M21.1591 9.79675C19.8811 9.79675 18.7451 8.66075 18.7451 7.38275C18.7451 6.10475 19.8811 4.96875 21.1591 4.96875C22.4371 4.96875 23.5731 6.10475 23.5731 7.38275C23.5731 8.66075 22.4371 9.79675 21.1591 9.79675V9.79675ZM21.1591 6.38875C20.5911 6.38875 20.1651 6.81475 20.1651 7.38275C20.1651 7.95075 20.5911 8.37675 21.1591 8.37675C21.7271 8.37675 22.1531 7.95075 22.1531 7.38275C22.1531 6.81475 21.7271 6.38875 21.1591 6.38875ZM14.4851 9.79675C13.2071 9.79675 12.0711 8.66075 12.0711 7.38275C12.0711 6.10475 13.2071 4.96875 14.4851 4.96875C15.7631 4.96875 16.8991 6.10475 16.8991 7.38275C16.8991 8.66075 15.9051 9.79675 14.4851 9.79675ZM14.4851 6.38875C13.9171 6.38875 13.4911 6.81475 13.4911 7.38275C13.4911 7.95075 13.9171 8.37675 14.4851 8.37675C15.0531 8.37675 15.4791 7.95075 15.4791 7.38275C15.4791 6.81475 15.0531 6.38875 14.4851 6.38875ZM7.95306 9.79675C6.67506 9.79675 5.53906 8.66075 5.53906 7.38275C5.53906 6.10475 6.67506 4.96875 7.95306 4.96875C9.23106 4.96875 10.3671 6.10475 10.3671 7.38275C10.3671 8.66075 9.23106 9.79675 7.95306 9.79675ZM7.95306 6.38875C7.38506 6.38875 6.95906 6.81475 6.95906 7.38275C6.95906 7.95075 7.38506 8.37675 7.95306 8.37675C8.52106 8.37675 8.94706 7.95075 8.94706 7.38275C8.94706 6.81475 8.52106 6.38875 7.95306 6.38875ZM55.5231 8.09275H28.1171C27.6911 8.09275 27.4071 7.80875 27.4071 7.38275C27.4071 6.95675 27.6911 6.67275 28.1171 6.67275H55.3811C55.8071 6.67275 56.0911 6.95675 56.0911 7.38275C56.0911 7.80875 55.9491 8.09275 55.5231 8.09275Z" fill="white"></path>
  <path d="M50.8363 55.521C50.6943 55.521 50.5523 55.521 50.4103 55.379L47.8543 53.249C47.7123 53.107 47.5703 52.965 47.5703 52.681C47.5703 52.397 47.7123 52.255 47.8543 52.113L50.4103 49.983C50.6943 49.699 51.1203 49.841 51.4043 50.125C51.6883 50.409 51.5463 50.835 51.2623 51.119L49.4163 52.681L51.2623 54.243C51.5463 54.527 51.5463 54.953 51.4043 55.237C51.2623 55.521 50.9783 55.521 50.8363 55.521V55.521ZM56.3743 55.521C56.2323 55.521 55.9483 55.379 55.8063 55.237C55.5223 54.953 55.6643 54.527 55.9483 54.243L57.7943 52.681L55.9483 51.119C55.6643 50.835 55.6643 50.409 55.8063 50.125C56.0903 49.841 56.5163 49.841 56.8003 49.983L59.3563 52.113C59.6403 52.255 59.6403 52.539 59.6403 52.681C59.6403 52.823 59.4983 53.107 59.3563 53.249L56.8003 55.379C56.6583 55.521 56.5163 55.521 56.3743 55.521ZM52.1143 56.657H51.8303C51.4043 56.515 51.2623 56.089 51.5463 55.663L54.5283 49.131C54.6703 48.705 55.0963 48.563 55.5223 48.847C55.9483 48.989 56.0903 49.415 55.8063 49.841L52.8243 56.373C52.6823 56.515 52.3983 56.657 52.1143 56.657Z" fill="#1569E7"></path>
</svg>
