<?xml version="1.0" encoding="UTF-8"?>
<svg xmlns="http://www.w3.org/2000/svg" width="72" height="72" viewBox="0 0 72 72" fill="none">
  <path d="M45 1.5H27C25.3431 1.5 24 2.84315 24 4.5V16.5C24 18.1569 25.3431 19.5 27 19.5H45C46.6569 19.5 48 18.1569 48 16.5V4.5C48 2.84315 46.6569 1.5 45 1.5Z" fill="#DBEDFF"></path>
  <path d="M48 4.5V16.5H42C38.0218 16.5 34.2064 14.9196 31.3934 12.1066C28.5804 9.29356 27 5.47825 27 1.5H45C45.7956 1.5 46.5587 1.81607 47.1213 2.37868C47.6839 2.94129 48 3.70435 48 4.5Z" fill="#DBEDFF"></path>
  <path d="M45 27H27C25.3431 27 24 28.3431 24 30V42C24 43.6569 25.3431 45 27 45H45C46.6569 45 48 43.6569 48 42V30C48 28.3431 46.6569 27 45 27Z" fill="#DBEDFF"></path>
  <path d="M48 30V42H42C38.0218 42 34.2064 40.4196 31.3934 37.6066C28.5804 34.7936 27 30.9782 27 27H45C45.7956 27 46.5587 27.3161 47.1213 27.8787C47.6839 28.4413 48 29.2044 48 30Z" fill="#DBEDFF"></path>
  <path d="M45 52.5H27C25.3431 52.5 24 53.8431 24 55.5V67.5C24 69.1569 25.3431 70.5 27 70.5H45C46.6569 70.5 48 69.1569 48 67.5V55.5C48 53.8431 46.6569 52.5 45 52.5Z" fill="#DBEDFF"></path>
  <path d="M48 55.5V67.5H42C38.0218 67.5 34.2064 65.9196 31.3934 63.1066C28.5804 60.2936 27 56.4782 27 52.5H45C45.7956 52.5 46.5587 52.8161 47.1213 53.3787C47.6839 53.9413 48 54.7044 48 55.5Z" fill="#DBEDFF"></path>
  <path d="M69 23.25C69 15.96 63.42 9 54 9C53.6022 9 53.2206 9.15804 52.9393 9.43934C52.658 9.72064 52.5 10.1022 52.5 10.5C52.5 10.8978 52.658 11.2794 52.9393 11.5607C53.2206 11.842 53.6022 12 54 12C68.22 12 70.02 30.255 58.11 33.99C58.35 33.6964 58.4698 33.3228 58.4455 32.9444C58.4211 32.566 58.2544 32.2108 57.9787 31.9504C57.7031 31.69 57.3391 31.5436 56.9599 31.5408C56.5807 31.5379 56.2145 31.6788 55.935 31.935C51.315 36.57 51.33 35.445 55.935 40.065C56.2175 40.3474 56.6005 40.5061 57 40.5061C57.3995 40.5061 57.7825 40.3474 58.065 40.065C58.3475 39.7825 58.5061 39.3994 58.5061 39C58.5061 38.6005 58.3475 38.2175 58.065 37.935L57.375 37.26C60.6401 36.6422 63.5875 34.905 65.7095 32.3476C67.8314 29.7903 68.9951 26.573 69 23.25V23.25ZM19.5 61.59C19.5 60.69 19.29 60.645 16.08 57.435C15.8005 57.1788 15.4343 57.0379 15.0551 57.0408C14.6759 57.0436 14.3119 57.19 14.0363 57.4504C13.7606 57.7108 13.5939 58.066 13.5695 58.4444C13.5452 58.8228 13.665 59.1964 13.905 59.49C11.2772 58.6653 9.04254 56.9065 7.62346 54.5461C6.20437 52.1857 5.6992 49.3871 6.20341 46.6795C6.70763 43.9719 8.1863 41.5428 10.3599 39.8514C12.5335 38.16 15.2515 37.3235 18 37.5C18.3978 37.5 18.7794 37.342 19.0607 37.0607C19.342 36.7794 19.5 36.3978 19.5 36C19.5 35.6022 19.342 35.2206 19.0607 34.9393C18.7794 34.658 18.3978 34.5 18 34.5C8.49 34.5 3 41.55 3 48.75C3.00489 52.073 4.16855 55.2903 6.29052 57.8476C8.41249 60.405 11.3599 62.1422 14.625 62.76L13.935 63.435C13.7235 63.6448 13.5792 63.9128 13.5206 64.205C13.462 64.4971 13.4917 64.8 13.6059 65.0752C13.7202 65.3504 13.9138 65.5853 14.1621 65.75C14.4104 65.9147 14.7021 66.0017 15 66C15.81 66 15.855 65.775 19.065 62.565C19.3122 62.2959 19.4649 61.9536 19.5 61.59Z" fill="#1569E7"></path>
  <path d="M52.9333 62.5633C52.7935 62.4235 52.6825 62.2574 52.6068 62.0747C52.5311 61.892 52.4922 61.6961 52.4922 61.4983C52.4922 61.3005 52.5311 61.1047 52.6068 60.922C52.6825 60.7392 52.7935 60.5732 52.9333 60.4333C53.0732 60.2935 53.2392 60.1825 53.422 60.1068C53.6047 60.0311 53.8005 59.9922 53.9983 59.9922C54.1961 59.9922 54.392 60.0311 54.5747 60.1068C54.7574 60.1825 54.9235 60.2935 55.0633 60.4333L56.9983 62.3833L61.9333 57.4333C62.2158 57.1509 62.5989 56.9922 62.9983 56.9922C63.3978 56.9922 63.7809 57.1509 64.0633 57.4333C64.3458 57.7158 64.5045 58.0989 64.5045 58.4983C64.5045 58.8978 64.3458 59.2809 64.0633 59.5633C55.8883 67.7233 57.8083 67.4983 52.9333 62.5633Z" fill="#32C997"></path>
  <path d="M19.095 7.9781L16.095 4.9781C15.8185 4.69167 15.4396 4.5268 15.0415 4.51977C14.6435 4.51273 14.2589 4.66411 13.9725 4.9406C13.6861 5.21709 13.5212 5.59604 13.5142 5.99408C13.5071 6.39213 13.6585 6.77667 13.935 7.0631C14.535 7.6481 15.765 7.4981 7.5 7.4981C7.10218 7.4981 6.72064 7.65614 6.43934 7.93744C6.15804 8.21874 6 8.60027 6 8.9981C6 9.39592 6.15804 9.77745 6.43934 10.0588C6.72064 10.3401 7.10218 10.4981 7.5 10.4981C15.435 10.4981 14.565 10.3031 13.935 10.9331C13.7235 11.1429 13.5792 11.411 13.5206 11.7031C13.462 11.9952 13.4917 12.2982 13.6059 12.5733C13.7202 12.8485 13.9138 13.0834 14.1621 13.2481C14.4104 13.4128 14.7021 13.4998 15 13.4981C15.81 13.4981 15.855 13.2731 19.065 10.0631C19.3394 9.78731 19.496 9.41568 19.5015 9.02666C19.5071 8.63765 19.3614 8.26167 19.095 7.9781Z" fill="#1569E7"></path>
  <path d="M42 9H30C29.6022 9 29.2206 8.84196 28.9393 8.56066C28.658 8.27936 28.5 7.89782 28.5 7.5C28.5 7.10218 28.658 6.72064 28.9393 6.43934C29.2206 6.15804 29.6022 6 30 6H42C42.3978 6 42.7794 6.15804 43.0607 6.43934C43.342 6.72064 43.5 7.10218 43.5 7.5C43.5 7.89782 43.342 8.27936 43.0607 8.56066C42.7794 8.84196 42.3978 9 42 9ZM39 15H30C29.6022 15 29.2206 14.842 28.9393 14.5607C28.658 14.2794 28.5 13.8978 28.5 13.5C28.5 13.1022 28.658 12.7206 28.9393 12.4393C29.2206 12.158 29.6022 12 30 12H39C39.3978 12 39.7794 12.158 40.0607 12.4393C40.342 12.7206 40.5 13.1022 40.5 13.5C40.5 13.8978 40.342 14.2794 40.0607 14.5607C39.7794 14.842 39.3978 15 39 15ZM42 34.5H30C29.6022 34.5 29.2206 34.342 28.9393 34.0607C28.658 33.7794 28.5 33.3978 28.5 33C28.5 32.6022 28.658 32.2206 28.9393 31.9393C29.2206 31.658 29.6022 31.5 30 31.5H42C42.3978 31.5 42.7794 31.658 43.0607 31.9393C43.342 32.2206 43.5 32.6022 43.5 33C43.5 33.3978 43.342 33.7794 43.0607 34.0607C42.7794 34.342 42.3978 34.5 42 34.5ZM39 40.5H30C29.6022 40.5 29.2206 40.342 28.9393 40.0607C28.658 39.7794 28.5 39.3978 28.5 39C28.5 38.6022 28.658 38.2206 28.9393 37.9393C29.2206 37.658 29.6022 37.5 30 37.5H39C39.3978 37.5 39.7794 37.658 40.0607 37.9393C40.342 38.2206 40.5 38.6022 40.5 39C40.5 39.3978 40.342 39.7794 40.0607 40.0607C39.7794 40.342 39.3978 40.5 39 40.5ZM42 60H30C29.6022 60 29.2206 59.842 28.9393 59.5607C28.658 59.2794 28.5 58.8978 28.5 58.5C28.5 58.1022 28.658 57.7206 28.9393 57.4393C29.2206 57.158 29.6022 57 30 57H42C42.3978 57 42.7794 57.158 43.0607 57.4393C43.342 57.7206 43.5 58.1022 43.5 58.5C43.5 58.8978 43.342 59.2794 43.0607 59.5607C42.7794 59.842 42.3978 60 42 60ZM39 66H30C29.6022 66 29.2206 65.842 28.9393 65.5607C28.658 65.2794 28.5 64.8978 28.5 64.5C28.5 64.1022 28.658 63.7206 28.9393 63.4393C29.2206 63.158 29.6022 63 30 63H39C39.3978 63 39.7794 63.158 40.0607 63.4393C40.342 63.7206 40.5 64.1022 40.5 64.5C40.5 64.8978 40.342 65.2794 40.0607 65.5607C39.7794 65.842 39.3978 66 39 66Z" fill="#1569E7"></path>
</svg>
